<?xml version="1.0" encoding="utf-8"?>
<!-- Generator: Adobe Illustrator 16.0.0, SVG Export Plug-In . SVG Version: 6.00 Build 0)  -->
<!DOCTYPE svg PUBLIC "-//W3C//DTD SVG 1.1//EN" "http://www.w3.org/Graphics/SVG/1.1/DTD/svg11.dtd">
<svg version="1.1" id="Layer_1" xmlns="http://www.w3.org/2000/svg" xmlns:xlink="http://www.w3.org/1999/xlink" x="0px" y="0px"
	 width="60px" height="60px" viewBox="-8.5 -3.073 60 60" enable-background="new -8.5 -3.073 60 60" xml:space="preserve">
<path fill="#231F20" d="M37.464,20.359c-0.192-0.476-0.284-0.938-0.517-1.392l4.238-7.648l-1.838-1.87L37.96,8.048L36.1,6.179
	l-8.192,4.727c-0.048-0.019-0.097-0.026-0.144-0.029l-2.629-8.95h-2.644H21.5h-0.991h-2.644l-2.628,8.95
	c-0.048,0.002-0.096,0.01-0.144,0.029L6.9,6.179l-1.861,1.87L3.652,9.45l-1.838,1.87l4.238,7.648
	c-0.232,0.454-0.324,0.916-0.517,1.392L-2.5,22.792v2.644v1.982v2.644l7.626,2.314c0.224,0.682,0.245,1.342,0.547,1.984
	l-3.921,7.184l1.87,1.877l1.401,1.417l1.869,1.901l7.181-3.859c0.462,0.218,0.936,0.539,1.419,0.716l2.373,8.331h2.644H21.5h0.991
	h2.644l2.373-8.331c0.483-0.177,0.957-0.498,1.419-0.716l7.181,3.859l1.869-1.901l1.401-1.417l1.87-1.877l-3.921-7.184
	c0.302-0.644,0.323-1.304,0.547-1.984l7.626-2.314v-2.644v-1.982v-2.644L37.464,20.359z M21.5,35.401
	c-4.736-0.261-8.5-4.174-8.5-8.975s3.764-8.714,8.5-8.975c4.736,0.261,8.5,4.173,8.5,8.975C30,31.228,26.236,35.141,21.5,35.401z"/>
</svg>
