<?xml version="1.0" encoding="utf-8"?>
<!-- Generator: Adobe Illustrator 16.0.0, SVG Export Plug-In . SVG Version: 6.00 Build 0)  -->
<!DOCTYPE svg PUBLIC "-//W3C//DTD SVG 1.1//EN" "http://www.w3.org/Graphics/SVG/1.1/DTD/svg11.dtd">
<svg version="1.1" id="svg" xmlns="http://www.w3.org/2000/svg" xmlns:xlink="http://www.w3.org/1999/xlink" x="0px" y="0px"
	 width="200px" height="200px" viewBox="72.5 99.5 200 200" enable-background="new 72.5 99.5 200 200" xml:space="preserve">
<g id="svgg">
	<path id="path4" display="none" fill="#353535" d="M166.984,0.431C45.305,11.041-38.365,124.099-12.472,242.92
		c23.576,108.184,131.938,176.535,240.589,151.754c79.691-18.176,141.402-85.007,152.888-165.572
		c1.672-11.728,1.8-13.813,1.8-29.296c0-15.485-0.128-17.569-1.8-29.297C366.293,67.309,270.75-8.617,166.984,0.431 M194.523,16.806
		c114.205,7.566,193.687,115.423,166.805,226.358C341.477,325.089,267.48,383.191,183,383.191
		c-101.125,0-183.594-82.375-183.594-183.386C-0.594,94.321,89.474,9.848,194.523,16.806 M-17,0 M-17,0"/>
	<rect x="104.809" y="117" fill="#353535" stroke="#FFFFFF" stroke-width="4" stroke-miterlimit="10" width="108" height="144"/>
	<rect x="133.5" y="140.5" fill="#353535" stroke="#FFFFFF" stroke-width="4" stroke-miterlimit="10" width="108" height="144"/>
</g>
</svg>
